Coordinates
version=1
nRows=10
nColumns=22
inDegrees=yes

Units are S.I. units (second, meters, Newtons, ...)
If the header above contains a line with 'inDegrees', this indicates whether rotational values are in degrees (yes) or radians (no).

endheader
time	pelvis_tilt	pelvis_list	pelvis_rotation	pelvis_tx	pelvis_ty	pelvis_tz	hip_flexion_r	hip_adduction_r	hip_rotation_r	knee_angle_r	ankle_angle_r	subtalar_angle_r	hip_flexion_l	hip_adduction_l	hip_rotation_l	knee_angle_l	ankle_angle_l	subtalar_angle_l	lumbar_extension	lumbar_bending	lumbar_rotation
      4.36000000	     -4.57645627	     -3.76237447	   -103.35462575	      0.35641925	      0.93539300	      1.09562123	     14.03529585	     -2.14878270	      5.68101003	    -41.45544650	      3.45533224	      5.00724589	      7.05845033	     -7.00941643	    -15.37201749	    -18.89913089	      4.41131582	     -0.39814987	     -8.53573989	     -0.26069006	     -2.67314219
      4.37000000	     -4.62855138	     -3.76055447	   -103.18385174	      0.35611844	      0.93566271	      1.09932806	     13.54164536	     -2.20265666	      5.54969901	    -38.83821721	      3.80870167	      4.85321575	      6.80115576	     -7.01550936	    -15.24066035	    -18.84652458	      4.61024121	     -0.38958333	     -8.50273297	     -0.24994339	     -2.75222280
      4.38000000	     -4.66688313	     -3.71202488	   -102.98895308	      0.35571446	      0.93580662	      1.10293621	     13.03933080	     -2.22745112	      5.45458958	    -36.17689552	      4.07252140	      4.79413815	      6.62410572	     -7.03533465	    -15.10729518	    -18.82962284	      4.82496334	     -0.36553793	     -8.40922126	     -0.24561101	     -2.80584540
      4.39000000	     -4.69554687	     -3.60390949	   -102.76480294	      0.35523023	      0.93580645	      1.10642548	     12.54934980	     -2.21684401	      5.41325865	    -33.50230457	      4.22992226	      4.82647620	      6.54467402	     -7.07380810	    -14.95725747	    -18.85056100	      5.04607920	     -0.34261993	     -8.24670595	     -0.23684818	     -2.83581134
      4.40000000	     -4.69725267	     -3.50841362	   -102.53646284	      0.35461650	      0.93578127	      1.10980370	     12.00644271	     -2.19543644	      5.48991505	    -30.84066965	      4.20240493	      4.93325704	      6.46120615	     -7.08907480	    -14.77746003	    -18.86643557	      5.26597029	     -0.28877053	     -8.08979819	     -0.27142754	     -2.83345727
      4.41000000	     -4.68485803	     -3.36121752	   -102.28350252	      0.35392701	      0.93562332	      1.11307817	     11.49608666	     -2.15706560	      5.60634706	    -28.25084459	      4.04324569	      5.10203169	      6.45202513	     -7.11098414	    -14.58350302	    -18.88965666	      5.47341605	     -0.23874247	     -7.86936824	     -0.30468823	     -2.79997681
      4.42000000	     -4.64346036	     -3.21264638	   -102.01569826	      0.35315218	      0.93539721	      1.11626189	     10.98055611	     -2.12873260	      5.78256285	    -25.77376427	      3.73272619	      5.33472971	      6.46030039	     -7.11026994	    -14.37525956	    -18.91809632	      5.68327454	     -0.17196739	     -7.63843097	     -0.37235081	     -2.74612855
      4.43000000	     -4.57188982	     -3.06985651	   -101.72830171	      0.35230185	      0.93510667	      1.11933851	     10.47010303	     -2.11758236	      5.99774984	    -23.45843528	      3.30387327	      5.62169959	      6.48334791	     -7.08531810	    -14.15541571	    -18.95530814	      5.89290892	     -0.08711622	     -7.40887421	     -0.47532939	     -2.67342635
      4.44000000	     -4.47322024	     -2.93593181	   -101.42477095	      0.35137780	      0.93476046	      1.12232594	      9.97387413	     -2.12610847	      6.21980015	    -21.34408124	      2.78646240	      5.93898497	      6.51240948	     -7.03790728	    -13.92807835	    -18.99689690	      6.09803523	      0.01334801	     -7.18270128	     -0.61049210	     -2.58438246
      4.45000000	     -4.34896056	     -2.83745441	   -101.10005332	      0.35039099	      0.93439563	      1.12520819	      9.47391667	     -2.15918385	      6.43934883	    -19.46350530	      2.23958264	      6.30604624	      6.52640854	     -6.96532586	    -13.69025242	    -19.05486872	      6.30638204	      0.14655493	     -6.99748603	     -0.78377330	     -2.47800454
